<svg width="24" height="34" viewBox="0 0 24 34" fill="none" xmlns="http://www.w3.org/2000/svg">
<path d="M11.9182 33.2483C11.6999 33.2292 11.4952 33.1341 11.3396 32.9797L5.81226 27.4622C5.44461 27.0958 5.44461 26.5004 5.81226 26.134C6.17863 25.7664 6.774 25.7664 7.14038 26.134L11.0637 30.0574V13.2581C10.424 12.9168 9.98218 12.2385 9.98218 11.4709C9.98218 10.3684 10.8914 9.45923 11.9939 9.45923C13.0964 9.45923 14.0154 10.3684 14.0154 11.4709C14.0154 12.2349 13.5739 12.9104 12.9363 13.2532V30.0476L16.8572 26.134C17.2236 25.7664 17.8189 25.7664 18.1853 26.134C18.553 26.5004 18.553 27.0958 18.1853 27.4622L12.658 32.9797C12.4627 33.1734 12.1923 33.2716 11.9182 33.2483ZM8.19263 22.1374C3.97242 20.5864 0.968506 16.5318 0.968506 11.7859C0.968506 5.70471 5.91179 0.748291 11.9939 0.748291C18.076 0.748291 23.0315 5.70471 23.0315 11.7859C23.0315 16.5234 20.0329 20.5705 15.8245 22.1277C15.3405 22.3053 14.8039 22.0588 14.6233 21.5759C14.4459 21.0912 14.6936 20.5543 15.1775 20.3748C18.6659 19.084 21.1565 15.7338 21.1565 11.7859C21.1565 6.71824 17.0629 2.63061 11.9939 2.63061C6.92491 2.63061 2.84106 6.71824 2.84106 11.7859C2.84106 15.7408 5.34142 19.0988 8.8396 20.3845C9.32121 20.5651 9.56741 21.1 9.39136 21.5833C9.23814 22.0323 8.73781 22.3636 8.19263 22.1374Z" fill="white"></path>
</svg>
